<svg width="40" height="40" viewBox="0 0 40 40" fill="none" xmlns="http://www.w3.org/2000/svg">
<path d="M24.8379 29.3749H9.91071C8.92449 29.3749 8.125 28.5754 8.125 27.5892C8.125 26.603 8.92449 25.8035 9.91071 25.8035H22.6389M30.1157 16.875V13.125C30.1157 11.7443 28.9964 10.625 27.6157 10.625L12.3842 10.625C11.0035 10.625 9.88425 11.7443 9.88425 13.125L9.88425 25.8036M29.375 16.875L26.323 16.875C24.9423 16.875 23.823 17.9943 23.823 19.375V26.875C23.823 28.2557 24.9423 29.375 26.323 29.375H29.375C30.7557 29.375 31.875 28.2557 31.875 26.875L31.875 19.375C31.875 17.9943 30.7557 16.875 29.375 16.875Z" stroke="#494949" stroke-width="1.6" stroke-linecap="round" stroke-linejoin="round"/>
</svg>
