<svg width="40" height="40" viewBox="0 0 40 40" fill="none" xmlns="http://www.w3.org/2000/svg">
<path d="M16.25 20L19.5592 23.125L24.375 16.2499M13.4664 9.62362C14.9567 10.2207 16.6512 9.51886 17.2828 8.04281C18.3057 5.6524 21.6943 5.6524 22.7172 8.04281C23.3488 9.51886 25.0433 10.2207 26.5336 9.62362C28.9472 8.65664 31.3434 11.0528 30.3764 13.4664C29.7793 14.9567 30.4811 16.6512 31.9572 17.2828C34.3476 18.3057 34.3476 21.6943 31.9572 22.7172C30.4811 23.3488 29.7793 25.0433 30.3764 26.5336C31.3434 28.9472 28.9472 31.3434 26.5336 30.3764C25.0433 29.7793 23.3488 30.4811 22.7172 31.9572C21.6943 34.3476 18.3057 34.3476 17.2828 31.9572C16.6512 30.4811 14.9567 29.7793 13.4664 30.3764C11.0528 31.3434 8.65664 28.9472 9.62362 26.5336C10.2207 25.0433 9.51886 23.3488 8.04281 22.7172C5.6524 21.6943 5.6524 18.3057 8.04281 17.2828C9.51886 16.6512 10.2207 14.9567 9.62362 13.4664C8.65664 11.0528 11.0528 8.65664 13.4664 9.62362Z" stroke="#494949" stroke-width="1.6" stroke-linecap="round" stroke-linejoin="round"/>
</svg>
