<svg width="216" height="28" viewBox="0 0 216 28" fill="none" xmlns="http://www.w3.org/2000/svg">
<g clip-path="url(#clip0_0_3)">
<path d="M215.141 26.3754H208.417V27.4539H215.141V26.3754Z" fill="#4E4D4C"/>
<path d="M215.141 0.560333H208.417V1.63887H215.141V0.560333Z" fill="#4E4D4C"/>
<path d="M215.141 7.01752H208.417V8.09606H215.141V7.01752Z" fill="#4E4D4C"/>
<path d="M215.141 13.4678H208.417V14.5463H215.141V13.4678Z" fill="#4E4D4C"/>
<path d="M215.141 19.925H208.417V21.0036H215.141V19.925Z" fill="#4E4D4C"/>
<path d="M67.2269 26.3755H60.5035V27.454H67.2269V26.3755Z" fill="#4E4D4C"/>
<path d="M67.2269 0.560333H60.5035V1.63887H67.2269V0.560333Z" fill="#4E4D4C"/>
<path d="M67.2269 7.01761H60.5035V8.09615H67.2269V7.01761Z" fill="#4E4D4C"/>
<path d="M67.2269 13.4679H60.5035V14.5464H67.2269V13.4679Z" fill="#4E4D4C"/>
<path d="M67.2269 19.925H60.5035V21.0036H67.2269V19.925Z" fill="#4E4D4C"/>
<path d="M99.1423 6.11406C99.1213 6.92646 99.0232 7.73187 98.8481 8.52326H91.3193C91.4384 8.08904 91.5014 7.64082 91.5014 7.18559C91.5014 5.70085 90.535 4.81141 88.609 4.81141C86.2348 4.81141 84.4139 6.33117 84.4139 8.29215C84.4139 9.18159 84.7851 9.88194 86.7531 10.4072L91.5014 11.7029C92.9161 12.046 94.2748 12.5783 95.5424 13.2926C96.9712 14.1891 97.7976 15.7929 97.6925 17.4807C97.6575 20.3452 96.3689 23.0555 94.1698 24.8904C91.8726 26.7814 88.3078 28 83.8186 28C77.1793 28 73.7265 25.7029 73.7265 21.1436C73.7265 20.3802 73.8106 19.6238 73.9857 18.8814H81.4444C81.3464 19.2666 81.2973 19.6658 81.2973 20.065C81.2973 22.026 82.558 23.0275 85.0792 23.0275C88.0837 23.0275 89.7926 21.4377 89.7926 19.3227C89.7926 18.3982 89.2393 17.7679 87.9367 17.3967L81.8156 15.7299C77.8096 14.6583 76.4719 12.6903 76.4719 10.022C76.4859 8.48124 76.9062 6.97549 77.6975 5.65183C79.6235 2.33217 83.7065 0 89.7155 0C96.0957 0 99.1423 2.07304 99.1423 6.11406Z" fill="#4E4D4C"/>
<path d="M125.931 0.560333L124.845 5.71491H111.994L110.796 11.3177H122.898L121.778 16.4723H109.676L108.478 22.2222H121.624L120.503 27.4538H99.9619L105.684 0.560333H125.931Z" fill="#4E4D4C"/>
<path d="M142.304 0.560333L147.144 20.5623L151.318 0.560333H157.838L152.137 27.4538H142.08L137.241 6.55533L132.885 27.4538H126.329L132.023 0.560333H142.304Z" fill="#4E4D4C"/>
<path d="M180.565 0.560333L185.481 27.4538H177.063L176.356 22.0541H165.591L162.608 27.4538H155.156L171.474 0.560333H180.565ZM174.493 5.81296L168.386 17.0956H175.683L174.605 5.81296H174.493Z" fill="#4E4D4C"/>
<path d="M201.694 0.560333L195.994 27.4538H188.318L194.026 0.560333H201.694Z" fill="#4E4D4C"/>
<path d="M8.39051 7.43773C8.41152 7.95599 8.27145 8.47425 7.99131 8.91547C7.73218 9.31466 7.38201 9.63683 6.9688 9.87495C6.53459 10.1201 6.06534 10.2952 5.5821 10.3862C5.09186 10.4843 4.58761 10.5403 4.09036 10.5403C3.54409 10.5403 2.99781 10.4913 2.46554 10.3722C2.00331 10.2741 1.56209 10.0921 1.16989 9.82592C0.812714 9.5808 0.518573 9.24463 0.322475 8.85243C0.105367 8.39721 -0.00669418 7.89996 0.000309322 7.39571H2.50056C2.42353 8.19411 3.00481 8.90846 3.81022 8.9855C3.92928 8.99951 4.04834 8.9925 4.16039 8.9785C4.36349 8.9785 4.56659 8.95048 4.76269 8.90146C4.95179 8.85243 5.13389 8.7754 5.29497 8.66334C5.44904 8.55829 5.5751 8.42522 5.67315 8.26414C5.7712 8.08905 5.82723 7.89295 5.82023 7.68985C5.82023 7.53578 5.7852 7.3887 5.71517 7.25564C5.64513 7.13658 5.54008 7.03152 5.42102 6.94748C5.28095 6.85644 5.13388 6.7794 4.9798 6.72337C4.80471 6.65333 4.62262 6.5903 4.43353 6.54128L2.87875 6.09305C2.45854 5.97399 2.04534 5.81992 1.64614 5.63082C1.33798 5.48375 1.05784 5.29465 0.812718 5.05654C0.609617 4.86044 0.448537 4.61531 0.343485 4.34918C0.245436 4.07605 0.189403 3.7889 0.196407 3.50176C0.1824 3.03252 0.301467 2.57029 0.532582 2.16409C0.756694 1.7929 1.07185 1.47775 1.44304 1.24663C1.84924 0.994504 2.29747 0.819417 2.7667 0.721368C3.27796 0.609312 3.80322 0.553284 4.32848 0.553284C4.83973 0.553284 5.35099 0.602308 5.84824 0.707361C6.27545 0.791403 6.68866 0.959487 7.05284 1.19761C7.38901 1.42172 7.66215 1.72287 7.85124 2.08005C8.06135 2.49325 8.15939 2.94848 8.14539 3.41071H5.64514C5.68016 2.68935 5.12688 2.07304 4.40552 2.03102C4.32848 2.03102 4.25144 2.03102 4.1744 2.03803C3.99231 2.03803 3.81022 2.05904 3.63513 2.10806C3.47405 2.15008 3.31296 2.22012 3.17289 2.31116C3.03983 2.40221 2.93478 2.52127 2.85774 2.66134C2.7737 2.80841 2.73868 2.9835 2.73868 3.15158C2.75269 3.41071 2.89276 3.64183 3.11688 3.76789C3.51608 4.01301 3.95729 4.20211 4.41252 4.32117L5.62412 4.69235C6.00231 4.81842 6.3665 4.94448 6.70267 5.08455C7.01782 5.21061 7.31897 5.3857 7.5851 5.59581C7.83723 5.79891 8.03332 6.05103 8.1734 6.33818C8.32747 6.68135 8.39751 7.05253 8.3835 7.42372L8.39051 7.43773Z" fill="#4E4D4C"/>
<path d="M11.8016 3.71182H9.47647V10.4212H11.8016V3.71182Z" fill="#4E4D4C"/>
<path d="M19.4913 8.34096C19.5053 8.70514 19.4003 9.06933 19.1972 9.37048C19.0011 9.65062 18.7349 9.88173 18.4338 10.0498C18.0976 10.2319 17.7335 10.358 17.3553 10.421C16.9491 10.498 16.5359 10.5331 16.1297 10.5331C15.7235 10.5331 15.3102 10.498 14.911 10.435C14.5398 10.379 14.1757 10.2529 13.8465 10.0778C13.5384 9.90975 13.2862 9.66462 13.0971 9.37048C12.894 9.0273 12.796 8.63512 12.81 8.23592H15.0651C15.0581 8.55107 15.1562 8.85922 15.3523 9.10434C15.5694 9.31445 15.8705 9.4195 16.1717 9.39149C16.3117 9.39149 16.4518 9.37748 16.5849 9.33546C16.7109 9.30044 16.837 9.25143 16.9421 9.17439C17.0471 9.10434 17.1311 9.0133 17.1942 8.90825C17.2572 8.79619 17.2922 8.66312 17.2852 8.53706C17.2852 8.33396 17.1732 8.14487 16.9981 8.03981C16.7179 7.87874 16.4098 7.75967 16.0876 7.70364L15.0091 7.45152C14.75 7.38848 14.4978 7.31145 14.2457 7.2204C14.0146 7.13636 13.7975 7.01731 13.6014 6.87024C13.4193 6.73017 13.2652 6.54807 13.1532 6.34497C13.0341 6.11386 12.9781 5.85473 12.9851 5.5956C12.9711 5.23142 13.0761 4.86723 13.2862 4.56608C13.4823 4.29995 13.7415 4.07584 14.0426 3.92876C14.3578 3.76768 14.6939 3.66263 15.0441 3.5996C15.3873 3.53657 15.7305 3.50854 16.0806 3.50854C16.4518 3.50854 16.816 3.54357 17.1872 3.5996C17.5443 3.65563 17.8875 3.76768 18.2027 3.93577C18.5038 4.09685 18.763 4.32095 18.9591 4.60109C19.1692 4.91625 19.2812 5.28743 19.2812 5.67263H17.1031C17.1171 5.38548 17.0121 5.11235 16.816 4.90224C16.6199 4.72015 16.3538 4.6221 16.0876 4.63611C15.8495 4.63611 15.6184 4.69215 15.4083 4.81121C15.1982 4.91626 15.0721 5.14037 15.0931 5.37148C15.0861 5.53957 15.1562 5.70064 15.2822 5.8127C15.4503 5.93876 15.6394 6.0228 15.8425 6.06482L17.2922 6.40799C17.8945 6.51306 18.4618 6.75117 18.9591 7.10834C19.3162 7.4165 19.5123 7.87173 19.4843 8.34096H19.4913Z" fill="#4E4D4C"/>
<path d="M23.4897 5.16851V7.95591C23.4617 8.24305 23.5247 8.5302 23.6718 8.78232C23.8819 8.97842 24.169 9.06246 24.4492 9.02044C24.5472 9.02044 24.6523 9.02044 24.7643 9.00643C24.8764 8.99243 24.9884 8.98542 25.1005 8.96441V10.4141C24.8344 10.4492 24.5752 10.4772 24.3301 10.4982C24.085 10.5192 23.8399 10.5332 23.6017 10.5332C23.2446 10.5332 22.8944 10.5122 22.5442 10.4492C22.2781 10.4071 22.026 10.2951 21.8159 10.134C21.6198 9.97292 21.4727 9.76281 21.3956 9.51769C21.2976 9.19553 21.2556 8.85936 21.2626 8.51619V5.16851H20.002V3.71879H21.2626V1.66676L23.4967 1.64575V3.71879H25.1145V5.16851H23.4897Z" fill="#4E4D4C"/>
<path d="M28.0071 7.41651C28.0071 7.66864 28.0351 7.91376 28.0841 8.15888C28.1332 8.37599 28.2172 8.57909 28.3363 8.76118C28.4483 8.92927 28.6024 9.06934 28.7845 9.16739C28.9946 9.27244 29.2257 9.32146 29.4568 9.31446C30.0591 9.41251 30.6334 9.00631 30.7315 8.397C30.7385 8.34798 30.7455 8.29895 30.7455 8.24993H32.9516C32.9166 8.52307 32.8185 8.7822 32.6785 9.02032C32.5384 9.26544 32.3633 9.48955 32.1532 9.68565C31.81 10.0008 31.4038 10.2249 30.9556 10.344C30.4583 10.477 29.9471 10.5401 29.4288 10.5331C28.8475 10.5471 28.2663 10.456 27.706 10.2739C26.8656 9.97979 26.2142 9.30045 25.9481 8.45303C25.808 8.02582 25.745 7.57759 25.752 7.12937C25.696 6.15588 26.0321 5.1964 26.6834 4.47504C27.4398 3.7817 28.4413 3.43152 29.4638 3.50856C30.1502 3.49455 30.8365 3.64163 31.4529 3.94978C32.0201 4.25093 32.4683 4.74818 32.7065 5.34348C32.8395 5.64463 32.9236 5.96679 32.9586 6.29595C32.9936 6.66714 33.0146 7.04533 33.0146 7.41651H28.0071ZM30.7805 6.27494C30.8085 5.86174 30.6895 5.44853 30.4583 5.10536C30.2132 4.81821 29.849 4.66414 29.4779 4.69215C29.0787 4.67114 28.6935 4.83222 28.4273 5.12637C28.1612 5.44853 28.0211 5.85473 28.0421 6.27494H30.7805Z" fill="#4E4D4C"/>
<path d="M43.4008 10.4212V6.63927C43.4008 6.42917 43.3868 6.21906 43.3588 6.00896C43.3378 5.82687 43.2818 5.65178 43.1977 5.4907C43.1207 5.34363 43.0016 5.22457 42.8545 5.14753C42.6725 5.05648 42.4623 5.01446 42.2592 5.02146C42.0491 5.01446 41.832 5.05648 41.6429 5.14753C41.4889 5.22457 41.3698 5.35063 41.2857 5.4977C41.1947 5.66579 41.1387 5.84087 41.1107 6.02997C41.0756 6.24708 41.0617 6.47119 41.0617 6.6953V10.4282H38.7365V6.65328C38.7365 6.46419 38.7295 6.27509 38.7085 6.086C38.6945 5.92492 38.6524 5.76384 38.5894 5.61676C38.5194 5.44167 38.4003 5.2946 38.2532 5.18254C38.0641 5.06349 37.847 5.00746 37.6229 5.01446C37.3988 5.00746 37.1747 5.06349 36.9786 5.18254C36.8035 5.2946 36.6635 5.44868 36.5724 5.63077C36.5024 5.77784 36.4533 5.93192 36.4323 6.086C36.4113 6.27509 36.3973 6.47119 36.3973 6.66028V10.4212H34.0721V4.6993C34.0721 4.53822 34.0721 4.38415 34.0721 4.23707C34.0721 4.09 34.0581 3.91491 34.0511 3.71881H36.2993L36.3693 4.78335C36.6074 4.40516 36.9436 4.097 37.3428 3.8939C37.756 3.71181 38.2112 3.62076 38.6664 3.62777C39.1147 3.61376 39.5629 3.71181 39.9691 3.90791C40.3543 4.11801 40.6554 4.46118 40.8165 4.87439C41.0616 4.46118 41.4188 4.13202 41.846 3.90791C42.2803 3.71181 42.7565 3.61376 43.2327 3.62076C43.723 3.59975 44.2132 3.70481 44.6474 3.92892C45.0046 4.13202 45.2848 4.44017 45.4528 4.81836C45.6559 5.2946 45.747 5.80586 45.733 6.31711V10.4212H43.4008Z" fill="#4E4D4C"/>
<path d="M51.5949 10.4001C51.5529 10.246 51.5179 10.0849 51.4969 9.92381C51.4759 9.76974 51.4548 9.59465 51.4408 9.39855C51.2237 9.77674 50.8946 10.0849 50.5024 10.281C50.0821 10.4561 49.6199 10.5401 49.1647 10.5261C48.8355 10.5261 48.5134 10.4841 48.1982 10.4001C47.9181 10.323 47.6589 10.197 47.4348 10.0219C47.2177 9.84678 47.0496 9.62967 46.9376 9.37754C46.8115 9.0904 46.7485 8.78224 46.7555 8.46709C46.7345 8.04688 46.8605 7.62667 47.1127 7.2905C47.3648 6.98935 47.6869 6.75123 48.0511 6.60415C48.4713 6.43607 48.9056 6.33102 49.3538 6.289C49.837 6.23297 50.3273 6.21196 50.8105 6.21196H51.4338V5.78474C51.4338 5.63767 51.4198 5.4976 51.3848 5.35053C51.3568 5.21746 51.3008 5.0914 51.2167 4.98635C51.1327 4.88129 51.0276 4.79025 50.9086 4.72722C50.5024 4.54512 50.0261 4.61516 49.6759 4.8953C49.5149 5.12642 49.4308 5.40656 49.4448 5.6937H47.1687C47.1687 5.2945 47.2737 4.8953 47.4978 4.56614C47.708 4.293 47.9741 4.06889 48.2823 3.92181C48.6114 3.76073 48.9616 3.65568 49.3188 3.59965C49.6829 3.54362 50.0471 3.51561 50.4183 3.51561C50.9436 3.50861 51.4618 3.55763 51.9731 3.66268C52.3793 3.74673 52.7505 3.94282 53.0376 4.23697C53.2477 4.45408 53.4088 4.71321 53.5069 4.99335C53.6259 5.36453 53.675 5.75673 53.668 6.14893V8.26398C53.668 8.65618 53.6679 9.01336 53.682 9.34953C53.689 9.70671 53.724 10.0569 53.773 10.4071H51.5879L51.5949 10.4001ZM51.4338 7.19245C51.3288 7.18544 51.2237 7.17844 51.1117 7.17844H50.8175C50.6074 7.17844 50.3973 7.19945 50.1872 7.23447C49.9771 7.26949 49.781 7.33252 49.5849 7.42356C49.4098 7.50761 49.2557 7.62667 49.1297 7.78074C49.0036 7.94182 48.9406 8.14492 48.9476 8.35503C48.9406 8.61416 49.0456 8.86628 49.2487 9.04137C49.4518 9.21646 49.711 9.3075 49.9771 9.3005C50.2292 9.3075 50.4813 9.25148 50.7055 9.12541C50.8876 9.01336 51.0416 8.85928 51.1537 8.67019C51.2657 8.47409 51.3358 8.25698 51.3708 8.03287C51.4128 7.78775 51.4338 7.53562 51.4338 7.2905V7.19245Z" fill="#4E4D4C"/>
<path d="M29.3313 16.9765V19.3647H33.3023V20.9755H29.3593V24.9325H26.8871V15.3307H33.5544V16.9765H29.3313Z" fill="#4E4D4C"/>
<path d="M37.0134 18.2229H34.6882V24.9323H37.0134V18.2229Z" fill="#4E4D4C"/>
<path d="M40.3057 21.9839C40.3057 22.2361 40.3337 22.4812 40.3828 22.7263C40.4318 22.9434 40.5158 23.1465 40.6349 23.3286C40.7469 23.4967 40.901 23.6368 41.0761 23.7348C41.2862 23.8399 41.5173 23.8889 41.7484 23.8819C42.3928 23.9519 42.9671 23.4827 43.0301 22.8454C43.0301 22.8104 43.0301 22.7753 43.0301 22.7403H45.2362C45.2012 23.0415 45.1031 23.3286 44.963 23.5877C44.823 23.8329 44.6479 24.057 44.4378 24.2531C44.0946 24.5682 43.6884 24.7923 43.2402 24.9114C42.7429 25.0445 42.2317 25.1075 41.7134 25.1075C41.1321 25.1215 40.5508 25.0305 39.9906 24.8484C39.5353 24.6873 39.1361 24.4212 38.814 24.057C38.5478 23.7558 38.3517 23.4057 38.2327 23.0275C38.0996 22.6003 38.0296 22.152 38.0366 21.7038C37.9806 20.7303 38.3167 19.7708 38.9751 19.0495C39.7314 18.3561 40.7329 18.006 41.7554 18.083C42.4418 18.069 43.1211 18.2161 43.7374 18.5172C44.3047 18.8184 44.7529 19.3156 44.9911 19.9109C45.1241 20.2121 45.2082 20.5342 45.2432 20.8634C45.2782 21.2346 45.2992 21.6128 45.2992 21.9839H40.2917H40.3057ZM43.0791 20.8424C43.1071 20.4292 42.9881 20.016 42.7499 19.6728C42.5118 19.3856 42.1476 19.2316 41.7765 19.2596C41.3773 19.2386 40.9921 19.3997 40.7259 19.6938C40.4598 20.016 40.3197 20.4222 40.3407 20.8424H43.0791Z" fill="#4E4D4C"/>
<path d="M53.7799 21.4795C53.7799 21.9558 53.7169 22.425 53.5978 22.8802C53.4858 23.2935 53.2967 23.6786 53.0305 24.0218C52.7784 24.351 52.4492 24.6101 52.078 24.7922C51.6578 24.9883 51.1956 25.0863 50.7264 25.0793C50.3202 25.0934 49.9069 25.0093 49.5358 24.8482C49.1716 24.6591 48.8494 24.393 48.5973 24.0708V27.4605H46.2721V19.5116C46.2721 19.3645 46.2721 19.2174 46.2651 19.0563C46.2581 18.8953 46.2581 18.7482 46.2511 18.6081C46.2441 18.468 46.2371 18.335 46.2301 18.2299H48.5133L48.5413 19.2104C48.7864 18.8462 49.1226 18.5451 49.5078 18.349C49.907 18.1669 50.3412 18.0758 50.7824 18.0828C51.2376 18.0758 51.6858 18.1599 52.1061 18.342C52.4702 18.5031 52.7854 18.7482 53.0375 19.0563C53.2896 19.3785 53.4787 19.7427 53.5908 20.1419C53.7169 20.5761 53.7799 21.0313 53.7729 21.4865L53.7799 21.4795ZM51.3987 21.5426C51.3987 21.2764 51.3707 21.0103 51.3287 20.7512C51.2936 20.5061 51.2096 20.2679 51.0975 20.0508C50.9925 19.8547 50.8454 19.6866 50.6563 19.5606C50.4602 19.4345 50.2221 19.3645 49.984 19.3715C49.7389 19.3575 49.4938 19.4275 49.2836 19.5606C49.1016 19.6937 48.9475 19.8617 48.8354 20.0578C48.7164 20.2749 48.6323 20.5131 48.5973 20.7582C48.5553 21.0243 48.5273 21.2975 48.5273 21.5706C48.5273 21.8367 48.5483 22.1029 48.5833 22.369C48.6183 22.6141 48.6883 22.8592 48.7934 23.0833C48.8914 23.2864 49.0315 23.4615 49.2136 23.5946C49.4097 23.7277 49.6478 23.7977 49.8929 23.7907C50.1451 23.7977 50.3902 23.7347 50.6003 23.5946C50.7894 23.4615 50.9505 23.2864 51.0555 23.0833C51.1746 22.8592 51.2586 22.6141 51.3007 22.362C51.3497 22.0889 51.3777 21.8157 51.3777 21.5356L51.3987 21.5426Z" fill="#4E4D4C"/>
<path d="M10.576 0.560211H10.7021C11.3114 0.560211 11.8016 1.05046 11.8016 1.65977C11.8016 2.26907 11.3114 2.75932 10.7021 2.75932H10.576C9.96672 2.75932 9.47647 2.26907 9.47647 1.65977C9.47647 1.05046 9.96672 0.560211 10.576 0.560211Z" fill="#4E4D4C"/>
<path d="M35.7878 15.0504H35.9138C36.5231 15.0504 37.0134 15.5406 37.0134 16.1499C37.0134 16.7592 36.5231 17.2495 35.9138 17.2495H35.7878C35.1784 17.2495 34.6882 16.7592 34.6882 16.1499C34.6882 15.5406 35.1784 15.0504 35.7878 15.0504Z" fill="#4E4D4C"/>
</g>
<defs>
<clipPath id="clip0_0_3">
<rect width="216" height="28" fill="white"/>
</clipPath>
</defs>
</svg>
